<svg xmlns="http://www.w3.org/2000/svg" viewBox="0 0 900 350" font-family="Inter,system-ui,sans-serif">
<rect width="900" height="350" fill="#0d1117" rx="12"/>
<text x="450" y="30" fill="#e6edf3" font-size="16" font-weight="700" text-anchor="middle">Benchmark Stress Fingerprints (7 Tasks × 42 Layers)</text>
<text x="92" y="70.0" fill="#f85149" font-size="10" text-anchor="end" font-weight="600">GSM8K</text>
<rect x="100" y="50" width="17" height="31" rx="2" fill="rgb(152,24,41)" opacity="0.7241983088134892"/>
<rect x="118" y="50" width="17" height="31" rx="2" fill="rgb(155,24,41)" opacity="0.7345196798308955"/>
<rect x="136" y="50" width="17" height="31" rx="2" fill="rgb(221,18,35)" opacity="0.9350730242337835"/>
<rect x="154" y="50" width="17" height="31" rx="2" fill="rgb(203,20,37)" opacity="0.879574595341482"/>
<rect x="172" y="50" width="17" height="31" rx="2" fill="rgb(158,24,41)" opacity="0.7429077584872839"/>
<rect x="190" y="50" width="17" height="31" rx="2" fill="rgb(123,27,44)" opacity="0.6374393549496171"/>
<rect x="208" y="50" width="17" height="31" rx="2" fill="rgb(102,29,46)" opacity="0.5738918731186737"/>
<rect x="226" y="50" width="17" height="31" rx="2" fill="rgb(189,21,38)" opacity="0.8382080230140461"/>
<rect x="244" y="50" width="17" height="31" rx="2" fill="rgb(220,18,35)" opacity="0.9309462036538563"/>
<rect x="262" y="50" width="17" height="31" rx="2" fill="rgb(243,17,34)" opacity="1.0"/>
<rect x="280" y="50" width="17" height="31" rx="2" fill="rgb(220,18,35)" opacity="0.931872254850068"/>
<rect x="298" y="50" width="17" height="31" rx="2" fill="rgb(227,18,35)" opacity="0.9523825336888763"/>
<rect x="316" y="50" width="17" height="31" rx="2" fill="rgb(187,21,38)" opacity="0.8318772591276105"/>
<rect x="334" y="50" width="17" height="31" rx="2" fill="rgb(164,23,40)" opacity="0.7612131576039138"/>
<rect x="352" y="50" width="17" height="31" rx="2" fill="rgb(188,21,38)" opacity="0.8339579946778257"/>
<rect x="370" y="50" width="17" height="31" rx="2" fill="rgb(191,21,38)" opacity="0.8431020690529778"/>
<rect x="388" y="50" width="17" height="31" rx="2" fill="rgb(182,22,39)" opacity="0.8166596033468643"/>
<rect x="406" y="50" width="17" height="31" rx="2" fill="rgb(226,18,35)" opacity="0.9504833973068565"/>
<rect x="424" y="50" width="17" height="31" rx="2" fill="rgb(219,19,36)" opacity="0.927473611838689"/>
<rect x="442" y="50" width="17" height="31" rx="2" fill="rgb(222,18,35)" opacity="0.9371571034354109"/>
<rect x="460" y="50" width="17" height="31" rx="2" fill="rgb(223,18,35)" opacity="0.9397641408311697"/>
<rect x="478" y="50" width="17" height="31" rx="2" fill="rgb(231,17,34)" opacity="0.9652896437190082"/>
<rect x="496" y="50" width="17" height="31" rx="2" fill="rgb(213,19,36)" opacity="0.9107396531462033"/>
<rect x="514" y="50" width="17" height="31" rx="2" fill="rgb(233,17,34)" opacity="0.9724323486038449"/>
<rect x="532" y="50" width="17" height="31" rx="2" fill="rgb(198,20,37)" opacity="0.8631376569003031"/>
<rect x="550" y="50" width="17" height="31" rx="2" fill="rgb(125,27,44)" opacity="0.6409384438734613"/>
<rect x="568" y="50" width="17" height="31" rx="2" fill="rgb(142,25,42)" opacity="0.694381833683995"/>
<rect x="586" y="50" width="17" height="31" rx="2" fill="rgb(162,24,41)" opacity="0.7539090476108947"/>
<rect x="604" y="50" width="17" height="31" rx="2" fill="rgb(179,22,39)" opacity="0.8070380850244603"/>
<rect x="622" y="50" width="17" height="31" rx="2" fill="rgb(210,19,36)" opacity="0.8996431970354315"/>
<rect x="640" y="50" width="17" height="31" rx="2" fill="rgb(172,23,40)" opacity="0.7848315271295743"/>
<rect x="658" y="50" width="17" height="31" rx="2" fill="rgb(111,28,45)" opacity="0.6002881025763006"/>
<rect x="676" y="50" width="17" height="31" rx="2" fill="rgb(89,30,47)" opacity="0.531924776890554"/>
<rect x="694" y="50" width="17" height="31" rx="2" fill="rgb(77,31,48)" opacity="0.49544871174324334"/>
<rect x="712" y="50" width="17" height="31" rx="2" fill="rgb(74,31,48)" opacity="0.4866878668098069"/>
<rect x="730" y="50" width="17" height="31" rx="2" fill="rgb(85,30,47)" opacity="0.5217676015048589"/>
<rect x="748" y="50" width="17" height="31" rx="2" fill="rgb(59,32,49)" opacity="0.44058634597312063"/>
<rect x="766" y="50" width="17" height="31" rx="2" fill="rgb(56,33,50)" opacity="0.43305816639914074"/>
<rect x="784" y="50" width="17" height="31" rx="2" fill="rgb(50,33,50)" opacity="0.4145640548824858"/>
<rect x="802" y="50" width="17" height="31" rx="2" fill="rgb(64,32,49)" opacity="0.4579821606519632"/>
<rect x="820" y="50" width="17" height="31" rx="2" fill="rgb(67,32,49)" opacity="0.4656663081558847"/>
<rect x="838" y="50" width="17" height="31" rx="2" fill="rgb(99,29,46)" opacity="0.5643055847783276"/>
<text x="92" y="102.0" fill="#d29922" font-size="10" text-anchor="end" font-weight="600">HellaSwag</text>
<rect x="100" y="82" width="17" height="31" rx="2" fill="rgb(160,24,41)" opacity="0.750136871377654"/>
<rect x="118" y="82" width="17" height="31" rx="2" fill="rgb(161,24,41)" opacity="0.751711284935052"/>
<rect x="136" y="82" width="17" height="31" rx="2" fill="rgb(213,19,36)" opacity="0.9110589227484285"/>
<rect x="154" y="82" width="17" height="31" rx="2" fill="rgb(198,20,37)" opacity="0.8632305864274084"/>
<rect x="172" y="82" width="17" height="31" rx="2" fill="rgb(181,22,39)" opacity="0.8129525435777119"/>
<rect x="190" y="82" width="17" height="31" rx="2" fill="rgb(130,26,43)" opacity="0.6575436787275157"/>
<rect x="208" y="82" width="17" height="31" rx="2" fill="rgb(96,29,46)" opacity="0.5550200129809157"/>
<rect x="226" y="82" width="17" height="31" rx="2" fill="rgb(170,23,40)" opacity="0.7785985402277042"/>
<rect x="244" y="82" width="17" height="31" rx="2" fill="rgb(198,20,37)" opacity="0.8634354155499724"/>
<rect x="262" y="82" width="17" height="31" rx="2" fill="rgb(217,19,36)" opacity="0.9235259934788254"/>
<rect x="280" y="82" width="17" height="31" rx="2" fill="rgb(203,20,37)" opacity="0.8812860940810041"/>
<rect x="298" y="82" width="17" height="31" rx="2" fill="rgb(199,20,37)" opacity="0.8687303193152471"/>
<rect x="316" y="82" width="17" height="31" rx="2" fill="rgb(172,23,40)" opacity="0.785066723936682"/>
<rect x="334" y="82" width="17" height="31" rx="2" fill="rgb(156,24,41)" opacity="0.736873780552396"/>
<rect x="352" y="82" width="17" height="31" rx="2" fill="rgb(186,21,38)" opacity="0.8282787832110117"/>
<rect x="370" y="82" width="17" height="31" rx="2" fill="rgb(178,22,39)" opacity="0.803859537633445"/>
<rect x="388" y="82" width="17" height="31" rx="2" fill="rgb(169,23,40)" opacity="0.7768507230852375"/>
<rect x="406" y="82" width="17" height="31" rx="2" fill="rgb(235,17,34)" opacity="0.9759656292522576"/>
<rect x="424" y="82" width="17" height="31" rx="2" fill="rgb(223,18,35)" opacity="0.9392856932944476"/>
<rect x="442" y="82" width="17" height="31" rx="2" fill="rgb(221,18,35)" opacity="0.9351434844154436"/>
<rect x="460" y="82" width="17" height="31" rx="2" fill="rgb(223,18,35)" opacity="0.9415653490282383"/>
<rect x="478" y="82" width="17" height="31" rx="2" fill="rgb(229,18,35)" opacity="0.9592445522033095"/>
<rect x="496" y="82" width="17" height="31" rx="2" fill="rgb(215,19,36)" opacity="0.9177098938576225"/>
<rect x="514" y="82" width="17" height="31" rx="2" fill="rgb(243,17,34)" opacity="1.0"/>
<rect x="532" y="82" width="17" height="31" rx="2" fill="rgb(201,20,37)" opacity="0.8745362227817135"/>
<rect x="550" y="82" width="17" height="31" rx="2" fill="rgb(127,27,44)" opacity="0.6497722641002435"/>
<rect x="568" y="82" width="17" height="31" rx="2" fill="rgb(145,25,42)" opacity="0.7024973230019038"/>
<rect x="586" y="82" width="17" height="31" rx="2" fill="rgb(166,23,40)" opacity="0.7669887271056548"/>
<rect x="604" y="82" width="17" height="31" rx="2" fill="rgb(186,21,38)" opacity="0.827184213889306"/>
<rect x="622" y="82" width="17" height="31" rx="2" fill="rgb(218,19,36)" opacity="0.9261332338023152"/>
<rect x="640" y="82" width="17" height="31" rx="2" fill="rgb(175,22,39)" opacity="0.7955176417591401"/>
<rect x="658" y="82" width="17" height="31" rx="2" fill="rgb(113,28,45)" opacity="0.6070326900369238"/>
<rect x="676" y="82" width="17" height="31" rx="2" fill="rgb(91,30,47)" opacity="0.5381502458083097"/>
<rect x="694" y="82" width="17" height="31" rx="2" fill="rgb(79,31,48)" opacity="0.5023918228582509"/>
<rect x="712" y="82" width="17" height="31" rx="2" fill="rgb(74,31,48)" opacity="0.48823304138078244"/>
<rect x="730" y="82" width="17" height="31" rx="2" fill="rgb(85,30,47)" opacity="0.5207511405213205"/>
<rect x="748" y="82" width="17" height="31" rx="2" fill="rgb(57,33,50)" opacity="0.43477809267292944"/>
<rect x="766" y="82" width="17" height="31" rx="2" fill="rgb(55,33,50)" opacity="0.4289435305952922"/>
<rect x="784" y="82" width="17" height="31" rx="2" fill="rgb(49,33,50)" opacity="0.4121373917354016"/>
<rect x="802" y="82" width="17" height="31" rx="2" fill="rgb(63,32,49)" opacity="0.4540552986078061"/>
<rect x="820" y="82" width="17" height="31" rx="2" fill="rgb(68,32,49)" opacity="0.46777707124186674"/>
<rect x="838" y="82" width="17" height="31" rx="2" fill="rgb(103,29,46)" opacity="0.5744155125736958"/>
<text x="92" y="134.0" fill="#58a6ff" font-size="10" text-anchor="end" font-weight="600">HumanEval</text>
<rect x="100" y="114" width="17" height="31" rx="2" fill="rgb(122,27,44)" opacity="0.6342217516870271"/>
<rect x="118" y="114" width="17" height="31" rx="2" fill="rgb(129,26,43)" opacity="0.6539425341859761"/>
<rect x="136" y="114" width="17" height="31" rx="2" fill="rgb(191,21,38)" opacity="0.8440330367661999"/>
<rect x="154" y="114" width="17" height="31" rx="2" fill="rgb(178,22,39)" opacity="0.8023665881731827"/>
<rect x="172" y="114" width="17" height="31" rx="2" fill="rgb(152,24,41)" opacity="0.7234193110125857"/>
<rect x="190" y="114" width="17" height="31" rx="2" fill="rgb(104,29,46)" opacity="0.5770296638965762"/>
<rect x="208" y="114" width="17" height="31" rx="2" fill="rgb(96,29,46)" opacity="0.5549749339584749"/>
<rect x="226" y="114" width="17" height="31" rx="2" fill="rgb(178,22,39)" opacity="0.8039515971441633"/>
<rect x="244" y="114" width="17" height="31" rx="2" fill="rgb(209,19,36)" opacity="0.8967779413694137"/>
<rect x="262" y="114" width="17" height="31" rx="2" fill="rgb(238,17,34)" opacity="0.9859467285866159"/>
<rect x="280" y="114" width="17" height="31" rx="2" fill="rgb(227,18,35)" opacity="0.9525650647825339"/>
<rect x="298" y="114" width="17" height="31" rx="2" fill="rgb(229,18,35)" opacity="0.9597002370373924"/>
<rect x="316" y="114" width="17" height="31" rx="2" fill="rgb(224,18,35)" opacity="0.9444616809620745"/>
<rect x="334" y="114" width="17" height="31" rx="2" fill="rgb(197,20,37)" opacity="0.8615680547450455"/>
<rect x="352" y="114" width="17" height="31" rx="2" fill="rgb(203,20,37)" opacity="0.8804399084491872"/>
<rect x="370" y="114" width="17" height="31" rx="2" fill="rgb(204,20,37)" opacity="0.8816007062755535"/>
<rect x="388" y="114" width="17" height="31" rx="2" fill="rgb(198,20,37)" opacity="0.8633579792649393"/>
<rect x="406" y="114" width="17" height="31" rx="2" fill="rgb(227,18,35)" opacity="0.9525510123152865"/>
<rect x="424" y="114" width="17" height="31" rx="2" fill="rgb(223,18,35)" opacity="0.9413136146185663"/>
<rect x="442" y="114" width="17" height="31" rx="2" fill="rgb(225,18,35)" opacity="0.9479378885945411"/>
<rect x="460" y="114" width="17" height="31" rx="2" fill="rgb(225,18,35)" opacity="0.9472535423093282"/>
<rect x="478" y="114" width="17" height="31" rx="2" fill="rgb(233,17,34)" opacity="0.972593031489805"/>
<rect x="496" y="114" width="17" height="31" rx="2" fill="rgb(214,19,36)" opacity="0.912984467301158"/>
<rect x="514" y="114" width="17" height="31" rx="2" fill="rgb(243,17,34)" opacity="1.0"/>
<rect x="532" y="114" width="17" height="31" rx="2" fill="rgb(208,19,36)" opacity="0.8955145209186928"/>
<rect x="550" y="114" width="17" height="31" rx="2" fill="rgb(139,26,43)" opacity="0.6835916999477194"/>
<rect x="568" y="114" width="17" height="31" rx="2" fill="rgb(148,25,42)" opacity="0.713365919581274"/>
<rect x="586" y="114" width="17" height="31" rx="2" fill="rgb(165,23,40)" opacity="0.7633589159973684"/>
<rect x="604" y="114" width="17" height="31" rx="2" fill="rgb(180,22,39)" opacity="0.8104464923974268"/>
<rect x="622" y="114" width="17" height="31" rx="2" fill="rgb(215,19,36)" opacity="0.9178252703450773"/>
<rect x="640" y="114" width="17" height="31" rx="2" fill="rgb(178,22,39)" opacity="0.80260109978546"/>
<rect x="658" y="114" width="17" height="31" rx="2" fill="rgb(118,27,44)" opacity="0.6210246707093767"/>
<rect x="676" y="114" width="17" height="31" rx="2" fill="rgb(87,30,47)" opacity="0.5252991628721289"/>
<rect x="694" y="114" width="17" height="31" rx="2" fill="rgb(77,31,48)" opacity="0.49495175101635147"/>
<rect x="712" y="114" width="17" height="31" rx="2" fill="rgb(77,31,48)" opacity="0.49749151099046174"/>
<rect x="730" y="114" width="17" height="31" rx="2" fill="rgb(91,30,47)" opacity="0.5389935936933635"/>
<rect x="748" y="114" width="17" height="31" rx="2" fill="rgb(64,32,49)" opacity="0.4562884045140654"/>
<rect x="766" y="114" width="17" height="31" rx="2" fill="rgb(66,32,49)" opacity="0.464311365849733"/>
<rect x="784" y="114" width="17" height="31" rx="2" fill="rgb(60,32,49)" opacity="0.4444592647117024"/>
<rect x="802" y="114" width="17" height="31" rx="2" fill="rgb(72,31,48)" opacity="0.481676833205998"/>
<rect x="820" y="114" width="17" height="31" rx="2" fill="rgb(72,31,48)" opacity="0.4820082786782163"/>
<rect x="838" y="114" width="17" height="31" rx="2" fill="rgb(106,28,45)" opacity="0.5841017087119369"/>
<text x="92" y="166.0" fill="#bc8cff" font-size="10" text-anchor="end" font-weight="600">MMLU_Pro</text>
<rect x="100" y="146" width="17" height="31" rx="2" fill="rgb(171,23,40)" opacity="0.783220958358545"/>
<rect x="118" y="146" width="17" height="31" rx="2" fill="rgb(155,24,41)" opacity="0.734306612581002"/>
<rect x="136" y="146" width="17" height="31" rx="2" fill="rgb(243,17,34)" opacity="1.0"/>
<rect x="154" y="146" width="17" height="31" rx="2" fill="rgb(204,20,37)" opacity="0.8840459700248633"/>
<rect x="172" y="146" width="17" height="31" rx="2" fill="rgb(180,22,39)" opacity="0.8092164285073236"/>
<rect x="190" y="146" width="17" height="31" rx="2" fill="rgb(128,26,43)" opacity="0.6518983836984265"/>
<rect x="208" y="146" width="17" height="31" rx="2" fill="rgb(100,29,46)" opacity="0.5653992990738006"/>
<rect x="226" y="146" width="17" height="31" rx="2" fill="rgb(182,22,39)" opacity="0.8169837821812427"/>
<rect x="244" y="146" width="17" height="31" rx="2" fill="rgb(212,19,36)" opacity="0.9074718905094663"/>
<rect x="262" y="146" width="17" height="31" rx="2" fill="rgb(240,17,34)" opacity="0.991163125247895"/>
<rect x="280" y="146" width="17" height="31" rx="2" fill="rgb(211,19,36)" opacity="0.905029205961007"/>
<rect x="298" y="146" width="17" height="31" rx="2" fill="rgb(222,18,35)" opacity="0.9366244493622544"/>
<rect x="316" y="146" width="17" height="31" rx="2" fill="rgb(186,21,38)" opacity="0.8291583549919708"/>
<rect x="334" y="146" width="17" height="31" rx="2" fill="rgb(162,23,40)" opacity="0.7554917958522354"/>
<rect x="352" y="146" width="17" height="31" rx="2" fill="rgb(189,21,38)" opacity="0.8382121417044808"/>
<rect x="370" y="146" width="17" height="31" rx="2" fill="rgb(189,21,38)" opacity="0.8375759664352023"/>
<rect x="388" y="146" width="17" height="31" rx="2" fill="rgb(175,22,39)" opacity="0.7948800044268142"/>
<rect x="406" y="146" width="17" height="31" rx="2" fill="rgb(230,18,35)" opacity="0.9611914663183683"/>
<rect x="424" y="146" width="17" height="31" rx="2" fill="rgb(223,18,35)" opacity="0.9408381802413539"/>
<rect x="442" y="146" width="17" height="31" rx="2" fill="rgb(224,18,35)" opacity="0.943308470270416"/>
<rect x="460" y="146" width="17" height="31" rx="2" fill="rgb(225,18,35)" opacity="0.945941461754765"/>
<rect x="478" y="146" width="17" height="31" rx="2" fill="rgb(234,17,34)" opacity="0.9755640014574647"/>
<rect x="496" y="146" width="17" height="31" rx="2" fill="rgb(217,19,36)" opacity="0.9233268326478887"/>
<rect x="514" y="146" width="17" height="31" rx="2" fill="rgb(240,17,34)" opacity="0.9914383719011459"/>
<rect x="532" y="146" width="17" height="31" rx="2" fill="rgb(200,20,37)" opacity="0.8717012043729022"/>
<rect x="550" y="146" width="17" height="31" rx="2" fill="rgb(123,27,44)" opacity="0.6364466247331346"/>
<rect x="568" y="146" width="17" height="31" rx="2" fill="rgb(142,25,42)" opacity="0.6944004292402897"/>
<rect x="586" y="146" width="17" height="31" rx="2" fill="rgb(162,24,41)" opacity="0.7541777845529078"/>
<rect x="604" y="146" width="17" height="31" rx="2" fill="rgb(184,22,39)" opacity="0.8229381299753169"/>
<rect x="622" y="146" width="17" height="31" rx="2" fill="rgb(215,19,36)" opacity="0.9150733853496795"/>
<rect x="640" y="146" width="17" height="31" rx="2" fill="rgb(175,22,39)" opacity="0.7941606364262861"/>
<rect x="658" y="146" width="17" height="31" rx="2" fill="rgb(111,28,45)" opacity="0.6005007853128421"/>
<rect x="676" y="146" width="17" height="31" rx="2" fill="rgb(89,30,47)" opacity="0.5315247195552659"/>
<rect x="694" y="146" width="17" height="31" rx="2" fill="rgb(76,31,48)" opacity="0.4932551287577146"/>
<rect x="712" y="146" width="17" height="31" rx="2" fill="rgb(74,31,48)" opacity="0.485976590820687"/>
<rect x="730" y="146" width="17" height="31" rx="2" fill="rgb(85,30,47)" opacity="0.519487545822315"/>
<rect x="748" y="146" width="17" height="31" rx="2" fill="rgb(59,32,49)" opacity="0.4411439310928909"/>
<rect x="766" y="146" width="17" height="31" rx="2" fill="rgb(56,33,50)" opacity="0.4330590323543896"/>
<rect x="784" y="146" width="17" height="31" rx="2" fill="rgb(50,33,50)" opacity="0.4151770338641132"/>
<rect x="802" y="146" width="17" height="31" rx="2" fill="rgb(65,32,49)" opacity="0.4589357487814536"/>
<rect x="820" y="146" width="17" height="31" rx="2" fill="rgb(68,32,49)" opacity="0.4681144756862969"/>
<rect x="838" y="146" width="17" height="31" rx="2" fill="rgb(100,29,46)" opacity="0.5657010519535352"/>
<text x="92" y="198.0" fill="#3fb950" font-size="10" text-anchor="end" font-weight="600">MMMLU</text>
<rect x="100" y="178" width="17" height="31" rx="2" fill="rgb(182,22,39)" opacity="0.8159445656576769"/>
<rect x="118" y="178" width="17" height="31" rx="2" fill="rgb(183,22,39)" opacity="0.819982567455785"/>
<rect x="136" y="178" width="17" height="31" rx="2" fill="rgb(204,20,37)" opacity="0.8824778870086649"/>
<rect x="154" y="178" width="17" height="31" rx="2" fill="rgb(205,20,37)" opacity="0.8854678497577857"/>
<rect x="172" y="178" width="17" height="31" rx="2" fill="rgb(179,22,39)" opacity="0.8077729201649257"/>
<rect x="190" y="178" width="17" height="31" rx="2" fill="rgb(129,26,43)" opacity="0.6533704124438021"/>
<rect x="208" y="178" width="17" height="31" rx="2" fill="rgb(90,30,47)" opacity="0.535212720360402"/>
<rect x="226" y="178" width="17" height="31" rx="2" fill="rgb(159,24,41)" opacity="0.7445687220563157"/>
<rect x="244" y="178" width="17" height="31" rx="2" fill="rgb(200,20,37)" opacity="0.8716370514769114"/>
<rect x="262" y="178" width="17" height="31" rx="2" fill="rgb(218,19,36)" opacity="0.9267610107210453"/>
<rect x="280" y="178" width="17" height="31" rx="2" fill="rgb(195,21,38)" opacity="0.8567758049787157"/>
<rect x="298" y="178" width="17" height="31" rx="2" fill="rgb(197,20,37)" opacity="0.8602372489277685"/>
<rect x="316" y="178" width="17" height="31" rx="2" fill="rgb(168,23,40)" opacity="0.7746657330944522"/>
<rect x="334" y="178" width="17" height="31" rx="2" fill="rgb(159,24,41)" opacity="0.7457215117171276"/>
<rect x="352" y="178" width="17" height="31" rx="2" fill="rgb(190,21,38)" opacity="0.8402128257122841"/>
<rect x="370" y="178" width="17" height="31" rx="2" fill="rgb(177,22,39)" opacity="0.7995596703056499"/>
<rect x="388" y="178" width="17" height="31" rx="2" fill="rgb(165,23,40)" opacity="0.7641456480137601"/>
<rect x="406" y="178" width="17" height="31" rx="2" fill="rgb(237,17,34)" opacity="0.9817921324526098"/>
<rect x="424" y="178" width="17" height="31" rx="2" fill="rgb(224,18,35)" opacity="0.9435062973329549"/>
<rect x="442" y="178" width="17" height="31" rx="2" fill="rgb(217,19,36)" opacity="0.9225403685922466"/>
<rect x="460" y="178" width="17" height="31" rx="2" fill="rgb(230,18,35)" opacity="0.9610363602267757"/>
<rect x="478" y="178" width="17" height="31" rx="2" fill="rgb(232,17,34)" opacity="0.9685903905878444"/>
<rect x="496" y="178" width="17" height="31" rx="2" fill="rgb(221,18,35)" opacity="0.9338123547416455"/>
<rect x="514" y="178" width="17" height="31" rx="2" fill="rgb(243,17,34)" opacity="1.0"/>
<rect x="532" y="178" width="17" height="31" rx="2" fill="rgb(203,20,37)" opacity="0.8801224839382225"/>
<rect x="550" y="178" width="17" height="31" rx="2" fill="rgb(127,27,44)" opacity="0.6497584050104759"/>
<rect x="568" y="178" width="17" height="31" rx="2" fill="rgb(140,25,42)" opacity="0.6883724902110586"/>
<rect x="586" y="178" width="17" height="31" rx="2" fill="rgb(172,23,40)" opacity="0.7843934395886366"/>
<rect x="604" y="178" width="17" height="31" rx="2" fill="rgb(195,21,38)" opacity="0.8557326549452327"/>
<rect x="622" y="178" width="17" height="31" rx="2" fill="rgb(234,17,34)" opacity="0.9743959240873317"/>
<rect x="640" y="178" width="17" height="31" rx="2" fill="rgb(192,21,38)" opacity="0.8471768998154214"/>
<rect x="658" y="178" width="17" height="31" rx="2" fill="rgb(128,26,43)" opacity="0.6530260542675277"/>
<rect x="676" y="178" width="17" height="31" rx="2" fill="rgb(102,29,46)" opacity="0.5721758164968501"/>
<rect x="694" y="178" width="17" height="31" rx="2" fill="rgb(102,29,46)" opacity="0.5712812235444675"/>
<rect x="712" y="178" width="17" height="31" rx="2" fill="rgb(98,29,46)" opacity="0.5606110186166788"/>
<rect x="730" y="178" width="17" height="31" rx="2" fill="rgb(102,29,46)" opacity="0.573272192827049"/>
<rect x="748" y="178" width="17" height="31" rx="2" fill="rgb(63,32,49)" opacity="0.4547149644214775"/>
<rect x="766" y="178" width="17" height="31" rx="2" fill="rgb(56,33,50)" opacity="0.4312364697657136"/>
<rect x="784" y="178" width="17" height="31" rx="2" fill="rgb(50,33,50)" opacity="0.4127253109745568"/>
<rect x="802" y="178" width="17" height="31" rx="2" fill="rgb(61,32,49)" opacity="0.44640369223312176"/>
<rect x="820" y="178" width="17" height="31" rx="2" fill="rgb(64,32,49)" opacity="0.45568535229664686"/>
<rect x="838" y="178" width="17" height="31" rx="2" fill="rgb(103,29,46)" opacity="0.5759047391814769"/>
<text x="92" y="230.0" fill="#39d2c0" font-size="10" text-anchor="end" font-weight="600">RedTeaming</text>
<rect x="100" y="210" width="17" height="31" rx="2" fill="rgb(172,23,40)" opacity="0.7861737434907211"/>
<rect x="118" y="210" width="17" height="31" rx="2" fill="rgb(173,23,40)" opacity="0.7884751845683554"/>
<rect x="136" y="210" width="17" height="31" rx="2" fill="rgb(224,18,35)" opacity="0.9428539248944712"/>
<rect x="154" y="210" width="17" height="31" rx="2" fill="rgb(220,18,35)" opacity="0.9318670224726862"/>
<rect x="172" y="210" width="17" height="31" rx="2" fill="rgb(191,21,38)" opacity="0.8435157571932317"/>
<rect x="190" y="210" width="17" height="31" rx="2" fill="rgb(139,25,42)" opacity="0.6855777128967826"/>
<rect x="208" y="210" width="17" height="31" rx="2" fill="rgb(117,27,44)" opacity="0.6176299523286035"/>
<rect x="226" y="210" width="17" height="31" rx="2" fill="rgb(211,19,36)" opacity="0.9028812964464481"/>
<rect x="244" y="210" width="17" height="31" rx="2" fill="rgb(235,17,34)" opacity="0.9774856979219821"/>
<rect x="262" y="210" width="17" height="31" rx="2" fill="rgb(243,17,34)" opacity="1.0"/>
<rect x="280" y="210" width="17" height="31" rx="2" fill="rgb(224,18,35)" opacity="0.9444281046346013"/>
<rect x="298" y="210" width="17" height="31" rx="2" fill="rgb(230,18,35)" opacity="0.9605910567647875"/>
<rect x="316" y="210" width="17" height="31" rx="2" fill="rgb(199,20,37)" opacity="0.8669594610878661"/>
<rect x="334" y="210" width="17" height="31" rx="2" fill="rgb(170,23,40)" opacity="0.7789054351701132"/>
<rect x="352" y="210" width="17" height="31" rx="2" fill="rgb(194,21,38)" opacity="0.853526289644946"/>
<rect x="370" y="210" width="17" height="31" rx="2" fill="rgb(198,20,37)" opacity="0.8652437984766033"/>
<rect x="388" y="210" width="17" height="31" rx="2" fill="rgb(193,21,38)" opacity="0.8489494332172198"/>
<rect x="406" y="210" width="17" height="31" rx="2" fill="rgb(225,18,35)" opacity="0.9458584569320188"/>
<rect x="424" y="210" width="17" height="31" rx="2" fill="rgb(218,19,36)" opacity="0.9248964862510796"/>
<rect x="442" y="210" width="17" height="31" rx="2" fill="rgb(226,18,35)" opacity="0.9500219252789626"/>
<rect x="460" y="210" width="17" height="31" rx="2" fill="rgb(227,18,35)" opacity="0.951996337221793"/>
<rect x="478" y="210" width="17" height="31" rx="2" fill="rgb(233,17,34)" opacity="0.9719298731711326"/>
<rect x="496" y="210" width="17" height="31" rx="2" fill="rgb(211,19,36)" opacity="0.9033234141003603"/>
<rect x="514" y="210" width="17" height="31" rx="2" fill="rgb(233,17,34)" opacity="0.9707789292398856"/>
<rect x="532" y="210" width="17" height="31" rx="2" fill="rgb(201,20,37)" opacity="0.8739245308781367"/>
<rect x="550" y="210" width="17" height="31" rx="2" fill="rgb(128,26,43)" opacity="0.651666230308043"/>
<rect x="568" y="210" width="17" height="31" rx="2" fill="rgb(146,25,42)" opacity="0.7055258544074091"/>
<rect x="586" y="210" width="17" height="31" rx="2" fill="rgb(164,23,40)" opacity="0.7609250743176195"/>
<rect x="604" y="210" width="17" height="31" rx="2" fill="rgb(180,22,39)" opacity="0.8093424617936962"/>
<rect x="622" y="210" width="17" height="31" rx="2" fill="rgb(213,19,36)" opacity="0.9111914167911823"/>
<rect x="640" y="210" width="17" height="31" rx="2" fill="rgb(172,23,40)" opacity="0.7855052345420478"/>
<rect x="658" y="210" width="17" height="31" rx="2" fill="rgb(113,28,45)" opacity="0.6064345618939504"/>
<rect x="676" y="210" width="17" height="31" rx="2" fill="rgb(89,30,47)" opacity="0.5342665156587387"/>
<rect x="694" y="210" width="17" height="31" rx="2" fill="rgb(80,31,48)" opacity="0.5040906976614354"/>
<rect x="712" y="210" width="17" height="31" rx="2" fill="rgb(75,31,48)" opacity="0.48983227682163233"/>
<rect x="730" y="210" width="17" height="31" rx="2" fill="rgb(86,30,47)" opacity="0.5243317961362502"/>
<rect x="748" y="210" width="17" height="31" rx="2" fill="rgb(59,32,49)" opacity="0.4428122344674449"/>
<rect x="766" y="210" width="17" height="31" rx="2" fill="rgb(58,33,50)" opacity="0.4385290313745126"/>
<rect x="784" y="210" width="17" height="31" rx="2" fill="rgb(50,33,50)" opacity="0.41530880574215095"/>
<rect x="802" y="210" width="17" height="31" rx="2" fill="rgb(64,32,49)" opacity="0.45806808518355224"/>
<rect x="820" y="210" width="17" height="31" rx="2" fill="rgb(67,32,49)" opacity="0.4657351896897338"/>
<rect x="838" y="210" width="17" height="31" rx="2" fill="rgb(100,29,46)" opacity="0.5658460185196243"/>
<text x="92" y="262.0" fill="#f778ba" font-size="10" text-anchor="end" font-weight="600">TruthfulQA</text>
<rect x="100" y="242" width="17" height="31" rx="2" fill="rgb(171,23,40)" opacity="0.7822389039380497"/>
<rect x="118" y="242" width="17" height="31" rx="2" fill="rgb(159,24,41)" opacity="0.7466885309008604"/>
<rect x="136" y="242" width="17" height="31" rx="2" fill="rgb(207,20,37)" opacity="0.8924371209709709"/>
<rect x="154" y="242" width="17" height="31" rx="2" fill="rgb(191,21,38)" opacity="0.8421577449334112"/>
<rect x="172" y="242" width="17" height="31" rx="2" fill="rgb(174,22,39)" opacity="0.7909439610062373"/>
<rect x="190" y="242" width="17" height="31" rx="2" fill="rgb(122,27,44)" opacity="0.6327185578096397"/>
<rect x="208" y="242" width="17" height="31" rx="2" fill="rgb(96,29,46)" opacity="0.5526179715905226"/>
<rect x="226" y="242" width="17" height="31" rx="2" fill="rgb(156,24,41)" opacity="0.7375087083679144"/>
<rect x="244" y="242" width="17" height="31" rx="2" fill="rgb(199,20,37)" opacity="0.8669946753666062"/>
<rect x="262" y="242" width="17" height="31" rx="2" fill="rgb(213,19,36)" opacity="0.9092016834582979"/>
<rect x="280" y="242" width="17" height="31" rx="2" fill="rgb(190,21,38)" opacity="0.8406773898677888"/>
<rect x="298" y="242" width="17" height="31" rx="2" fill="rgb(184,22,39)" opacity="0.8215564831580071"/>
<rect x="316" y="242" width="17" height="31" rx="2" fill="rgb(164,23,40)" opacity="0.7602060024745503"/>
<rect x="334" y="242" width="17" height="31" rx="2" fill="rgb(156,24,41)" opacity="0.7366492767859912"/>
<rect x="352" y="242" width="17" height="31" rx="2" fill="rgb(188,21,38)" opacity="0.8326161018661797"/>
<rect x="370" y="242" width="17" height="31" rx="2" fill="rgb(173,23,40)" opacity="0.7879618149400555"/>
<rect x="388" y="242" width="17" height="31" rx="2" fill="rgb(151,24,41)" opacity="0.7200612362704747"/>
<rect x="406" y="242" width="17" height="31" rx="2" fill="rgb(229,18,35)" opacity="0.9578396664226798"/>
<rect x="424" y="242" width="17" height="31" rx="2" fill="rgb(213,19,36)" opacity="0.9114533788101011"/>
<rect x="442" y="242" width="17" height="31" rx="2" fill="rgb(210,19,36)" opacity="0.9012246407722484"/>
<rect x="460" y="242" width="17" height="31" rx="2" fill="rgb(214,19,36)" opacity="0.9131875763681792"/>
<rect x="478" y="242" width="17" height="31" rx="2" fill="rgb(219,19,36)" opacity="0.9279942847100824"/>
<rect x="496" y="242" width="17" height="31" rx="2" fill="rgb(207,20,37)" opacity="0.8920894591956767"/>
<rect x="514" y="242" width="17" height="31" rx="2" fill="rgb(243,17,34)" opacity="1.0"/>
<rect x="532" y="242" width="17" height="31" rx="2" fill="rgb(198,20,37)" opacity="0.8659512189199132"/>
<rect x="550" y="242" width="17" height="31" rx="2" fill="rgb(122,27,44)" opacity="0.6325844736079512"/>
<rect x="568" y="242" width="17" height="31" rx="2" fill="rgb(142,25,42)" opacity="0.6929512388111699"/>
<rect x="586" y="242" width="17" height="31" rx="2" fill="rgb(163,23,40)" opacity="0.7591556830172488"/>
<rect x="604" y="242" width="17" height="31" rx="2" fill="rgb(184,22,39)" opacity="0.8225340324654598"/>
<rect x="622" y="242" width="17" height="31" rx="2" fill="rgb(216,19,36)" opacity="0.9185276433328717"/>
<rect x="640" y="242" width="17" height="31" rx="2" fill="rgb(170,23,40)" opacity="0.7804667511293446"/>
<rect x="658" y="242" width="17" height="31" rx="2" fill="rgb(110,28,45)" opacity="0.5956266438048012"/>
<rect x="676" y="242" width="17" height="31" rx="2" fill="rgb(88,30,47)" opacity="0.5306347902733733"/>
<rect x="694" y="242" width="17" height="31" rx="2" fill="rgb(78,31,48)" opacity="0.498136754483661"/>
<rect x="712" y="242" width="17" height="31" rx="2" fill="rgb(73,31,48)" opacity="0.48362212185230924"/>
<rect x="730" y="242" width="17" height="31" rx="2" fill="rgb(83,30,47)" opacity="0.5134093365505501"/>
<rect x="748" y="242" width="17" height="31" rx="2" fill="rgb(55,33,50)" opacity="0.43075256631913245"/>
<rect x="766" y="242" width="17" height="31" rx="2" fill="rgb(54,33,50)" opacity="0.425616361686432"/>
<rect x="784" y="242" width="17" height="31" rx="2" fill="rgb(49,33,50)" opacity="0.41024619731340567"/>
<rect x="802" y="242" width="17" height="31" rx="2" fill="rgb(62,32,49)" opacity="0.45071781413460743"/>
<rect x="820" y="242" width="17" height="31" rx="2" fill="rgb(65,32,49)" opacity="0.458744326239112"/>
<rect x="838" y="242" width="17" height="31" rx="2" fill="rgb(101,29,46)" opacity="0.5694779471233855"/>
<text x="109.0" y="289" fill="#e6edf3" font-size="9" text-anchor="middle" opacity="0.5">L0</text>
<text x="199.0" y="289" fill="#e6edf3" font-size="9" text-anchor="middle" opacity="0.5">L5</text>
<text x="289.0" y="289" fill="#e6edf3" font-size="9" text-anchor="middle" opacity="0.5">L10</text>
<text x="379.0" y="289" fill="#e6edf3" font-size="9" text-anchor="middle" opacity="0.5">L15</text>
<text x="469.0" y="289" fill="#e6edf3" font-size="9" text-anchor="middle" opacity="0.5">L20</text>
<text x="559.0" y="289" fill="#e6edf3" font-size="9" text-anchor="middle" opacity="0.5">L25</text>
<text x="649.0" y="289" fill="#e6edf3" font-size="9" text-anchor="middle" opacity="0.5">L30</text>
<text x="739.0" y="289" fill="#e6edf3" font-size="9" text-anchor="middle" opacity="0.5">L35</text>
<text x="829.0" y="289" fill="#e6edf3" font-size="9" text-anchor="middle" opacity="0.5">L40</text>
</svg>