<svg xmlns="http://www.w3.org/2000/svg" viewBox="0 0 900 400" font-family="Inter,system-ui,sans-serif">
<rect width="900" height="400" fill="#0d1117" rx="12"/>
<text x="450" y="28" fill="#e6edf3" font-size="16" font-weight="700" text-anchor="middle">Cognitive Stress (Mean |Z|) Across Layers</text>
<rect x="60.0" y="40" width="59.26829268292683" height="310" fill="#f85149" opacity="0.08"/>
<rect x="139.02439024390245" y="40" width="59.26829268292684" height="310" fill="#d29922" opacity="0.08"/>
<rect x="218.0487804878049" y="40" width="138.29268292682923" height="310" fill="#58a6ff" opacity="0.08"/>
<rect x="376.0975609756098" y="40" width="177.80487804878044" height="310" fill="#bc8cff" opacity="0.08"/>
<rect x="573.6585365853658" y="40" width="177.80487804878055" height="310" fill="#3fb950" opacity="0.08"/>
<rect x="771.219512195122" y="40" width="98.78048780487802" height="310" fill="#39d2c0" opacity="0.08"/>
<polyline points="60.0,180.70699074034428 79.7560975609756,183.0689517928863 99.51219512195122,119.89041237357705 119.26829268292683,136.92448632948958 139.02439024390245,166.8570893619489 158.78048780487805,222.11319710353638 178.53658536585365,250.7315893384835 198.2926829268293,161.38884104805308 218.0487804878049,124.5108835910547 237.8048780487805,101.95194105134237 257.5609756097561,124.50447855970262 277.31707317073176,121.954141389336 297.0731707317073,152.14139214700754 316.8292682926829,174.55491937276184 336.5853658536586,146.3968156046252 356.3414634146341,150.95893720399098 376.0975609756098,163.37517037459457 395.8536585365853,102.88943261385052 415.609756097561,113.33134638483352 435.3658536585366,112.76013829865548 455.1219512195122,109.47020726063269 474.8780487804878,101.924557656561 494.63414634146346,120.57981355542344 514.3902439024391,91.66666666666663 534.1463414634146,134.85638540221444 553.9024390243902,219.24142270939504 573.6585365853658,200.7382475052233 593.4146341463415,176.7327324797843 613.1707317073171,154.78940711724195 632.9268292682926,116.99140418231849 652.6829268292682,163.58297711967816 672.439024390244,233.34824412340737 692.1951219512196,261.17867783942455 711.9512195121952,272.16365127071197 731.7073170731707,275.7218923601718 751.4634146341464,263.9146162526954 771.219512195122,296.4822262151153 790.9756097560976,298.8805995179403 810.7317073170732,305.8488142697714 830.4878048780488,290.7029133541924 850.2439024390244,287.743894479479 870.0,248.45636002367593" fill="none" stroke="#39d2c0" stroke-width="2.5" stroke-linejoin="round"/>
<circle cx="60.0" cy="180.70699074034428" r="3" fill="#39d2c0"/>
<circle cx="79.7560975609756" cy="183.0689517928863" r="3" fill="#39d2c0"/>
<circle cx="99.51219512195122" cy="119.89041237357705" r="3" fill="#39d2c0"/>
<circle cx="119.26829268292683" cy="136.92448632948958" r="3" fill="#39d2c0"/>
<circle cx="139.02439024390245" cy="166.8570893619489" r="3" fill="#39d2c0"/>
<circle cx="158.78048780487805" cy="222.11319710353638" r="3" fill="#39d2c0"/>
<circle cx="178.53658536585365" cy="250.7315893384835" r="3" fill="#39d2c0"/>
<circle cx="198.2926829268293" cy="161.38884104805308" r="3" fill="#39d2c0"/>
<circle cx="218.0487804878049" cy="124.5108835910547" r="3" fill="#39d2c0"/>
<circle cx="237.8048780487805" cy="101.95194105134237" r="3" fill="#39d2c0"/>
<circle cx="257.5609756097561" cy="124.50447855970262" r="3" fill="#39d2c0"/>
<circle cx="277.31707317073176" cy="121.954141389336" r="3" fill="#39d2c0"/>
<circle cx="297.0731707317073" cy="152.14139214700754" r="3" fill="#39d2c0"/>
<circle cx="316.8292682926829" cy="174.55491937276184" r="3" fill="#39d2c0"/>
<circle cx="336.5853658536586" cy="146.3968156046252" r="3" fill="#39d2c0"/>
<circle cx="356.3414634146341" cy="150.95893720399098" r="3" fill="#39d2c0"/>
<circle cx="376.0975609756098" cy="163.37517037459457" r="3" fill="#39d2c0"/>
<circle cx="395.8536585365853" cy="102.88943261385052" r="3" fill="#39d2c0"/>
<circle cx="415.609756097561" cy="113.33134638483352" r="3" fill="#39d2c0"/>
<circle cx="435.3658536585366" cy="112.76013829865548" r="3" fill="#39d2c0"/>
<circle cx="455.1219512195122" cy="109.47020726063269" r="3" fill="#39d2c0"/>
<circle cx="474.8780487804878" cy="101.924557656561" r="3" fill="#39d2c0"/>
<circle cx="494.63414634146346" cy="120.57981355542344" r="3" fill="#39d2c0"/>
<circle cx="514.3902439024391" cy="91.66666666666663" r="3" fill="#39d2c0"/>
<circle cx="534.1463414634146" cy="134.85638540221444" r="3" fill="#39d2c0"/>
<circle cx="553.9024390243902" cy="219.24142270939504" r="3" fill="#39d2c0"/>
<circle cx="573.6585365853658" cy="200.7382475052233" r="3" fill="#39d2c0"/>
<circle cx="593.4146341463415" cy="176.7327324797843" r="3" fill="#39d2c0"/>
<circle cx="613.1707317073171" cy="154.78940711724195" r="3" fill="#39d2c0"/>
<circle cx="632.9268292682926" cy="116.99140418231849" r="3" fill="#39d2c0"/>
<circle cx="652.6829268292682" cy="163.58297711967816" r="3" fill="#39d2c0"/>
<circle cx="672.439024390244" cy="233.34824412340737" r="3" fill="#39d2c0"/>
<circle cx="692.1951219512196" cy="261.17867783942455" r="3" fill="#39d2c0"/>
<circle cx="711.9512195121952" cy="272.16365127071197" r="3" fill="#39d2c0"/>
<circle cx="731.7073170731707" cy="275.7218923601718" r="3" fill="#39d2c0"/>
<circle cx="751.4634146341464" cy="263.9146162526954" r="3" fill="#39d2c0"/>
<circle cx="771.219512195122" cy="296.4822262151153" r="3" fill="#39d2c0"/>
<circle cx="790.9756097560976" cy="298.8805995179403" r="3" fill="#39d2c0"/>
<circle cx="810.7317073170732" cy="305.8488142697714" r="3" fill="#39d2c0"/>
<circle cx="830.4878048780488" cy="290.7029133541924" r="3" fill="#39d2c0"/>
<circle cx="850.2439024390244" cy="287.743894479479" r="3" fill="#39d2c0"/>
<circle cx="870.0" cy="248.45636002367593" r="3" fill="#39d2c0"/>
<text x="60.0" y="390" fill="#e6edf3" font-size="10" text-anchor="middle" opacity="0.6">L0</text>
<text x="158.78048780487805" y="390" fill="#e6edf3" font-size="10" text-anchor="middle" opacity="0.6">L5</text>
<text x="257.5609756097561" y="390" fill="#e6edf3" font-size="10" text-anchor="middle" opacity="0.6">L10</text>
<text x="356.3414634146341" y="390" fill="#e6edf3" font-size="10" text-anchor="middle" opacity="0.6">L15</text>
<text x="455.1219512195122" y="390" fill="#e6edf3" font-size="10" text-anchor="middle" opacity="0.6">L20</text>
<text x="553.9024390243902" y="390" fill="#e6edf3" font-size="10" text-anchor="middle" opacity="0.6">L25</text>
<text x="652.6829268292682" y="390" fill="#e6edf3" font-size="10" text-anchor="middle" opacity="0.6">L30</text>
<text x="751.4634146341464" y="390" fill="#e6edf3" font-size="10" text-anchor="middle" opacity="0.6">L35</text>
<text x="850.2439024390244" y="390" fill="#e6edf3" font-size="10" text-anchor="middle" opacity="0.6">L40</text>
</svg>