<svg xmlns="http://www.w3.org/2000/svg" viewBox="0 0 900 400" font-family="Inter,system-ui,sans-serif">
<rect width="900" height="400" fill="#0d1117" rx="12"/>
<text x="450" y="28" fill="#e6edf3" font-size="16" font-weight="700" text-anchor="middle">Hub Stability Across Layers (Jaccard Top-100)</text>
<rect x="60.0" y="40" width="59.26829268292683" height="310" fill="#f85149" opacity="0.08"/>
<rect x="139.02439024390245" y="40" width="59.26829268292684" height="310" fill="#d29922" opacity="0.08"/>
<rect x="218.0487804878049" y="40" width="138.29268292682923" height="310" fill="#58a6ff" opacity="0.08"/>
<rect x="376.0975609756098" y="40" width="177.80487804878044" height="310" fill="#bc8cff" opacity="0.08"/>
<rect x="573.6585365853658" y="40" width="177.80487804878055" height="310" fill="#3fb950" opacity="0.08"/>
<rect x="771.219512195122" y="40" width="98.78048780487802" height="310" fill="#39d2c0" opacity="0.08"/>
<line x1="60" y1="350.0" x2="870" y2="350.0" stroke="#e6edf3" stroke-opacity="0.1" stroke-dasharray="4,4"/>
<text x="52" y="354.0" fill="#e6edf3" font-size="10" text-anchor="end" opacity="0.6">0.000</text>
<line x1="60" y1="272.5" x2="870" y2="272.5" stroke="#e6edf3" stroke-opacity="0.1" stroke-dasharray="4,4"/>
<text x="52" y="276.5" fill="#e6edf3" font-size="10" text-anchor="end" opacity="0.6">0.006</text>
<line x1="60" y1="195.0" x2="870" y2="195.0" stroke="#e6edf3" stroke-opacity="0.1" stroke-dasharray="4,4"/>
<text x="52" y="199.0" fill="#e6edf3" font-size="10" text-anchor="end" opacity="0.6">0.012</text>
<line x1="60" y1="117.5" x2="870" y2="117.5" stroke="#e6edf3" stroke-opacity="0.1" stroke-dasharray="4,4"/>
<text x="52" y="121.5" fill="#e6edf3" font-size="10" text-anchor="end" opacity="0.6">0.018</text>
<line x1="60" y1="40.0" x2="870" y2="40.0" stroke="#e6edf3" stroke-opacity="0.1" stroke-dasharray="4,4"/>
<text x="52" y="44.0" fill="#e6edf3" font-size="10" text-anchor="end" opacity="0.6">0.024</text>
<text x="60.0" y="390" fill="#e6edf3" font-size="10" text-anchor="middle" opacity="0.6">L0</text>
<text x="158.78048780487805" y="390" fill="#e6edf3" font-size="10" text-anchor="middle" opacity="0.6">L5</text>
<text x="257.5609756097561" y="390" fill="#e6edf3" font-size="10" text-anchor="middle" opacity="0.6">L10</text>
<text x="356.3414634146341" y="390" fill="#e6edf3" font-size="10" text-anchor="middle" opacity="0.6">L15</text>
<text x="455.1219512195122" y="390" fill="#e6edf3" font-size="10" text-anchor="middle" opacity="0.6">L20</text>
<text x="553.9024390243902" y="390" fill="#e6edf3" font-size="10" text-anchor="middle" opacity="0.6">L25</text>
<text x="652.6829268292682" y="390" fill="#e6edf3" font-size="10" text-anchor="middle" opacity="0.6">L30</text>
<text x="751.4634146341464" y="390" fill="#e6edf3" font-size="10" text-anchor="middle" opacity="0.6">L35</text>
<text x="850.2439024390244" y="390" fill="#e6edf3" font-size="10" text-anchor="middle" opacity="0.6">L40</text>
<polyline points="60.0,350.0 79.7560975609756,350.0 99.51219512195122,286.39028475711893 119.26829268292683,286.39028475711893 139.02439024390245,286.39028475711893 158.78048780487805,222.1380471380471 178.53658536585365,91.66666666666669 198.2926829268293,350.0 218.0487804878049,350.0 237.8048780487805,350.0 257.5609756097561,222.1380471380471 277.31707317073176,350.0 297.0731707317073,222.1380471380471 316.8292682926829,350.0 336.5853658536586,222.1380471380471 356.3414634146341,350.0 376.0975609756098,350.0 395.8536585365853,350.0 415.609756097561,350.0 435.3658536585366,350.0 455.1219512195122,286.39028475711893 474.8780487804878,286.39028475711893 494.63414634146346,350.0 514.3902439024391,222.1380471380471 534.1463414634146,350.0 553.9024390243902,286.39028475711893 573.6585365853658,222.1380471380471 593.4146341463415,286.39028475711893 613.1707317073171,350.0 632.9268292682926,350.0 652.6829268292682,222.1380471380471 672.439024390244,286.39028475711893 692.1951219512196,286.39028475711893 711.9512195121952,286.39028475711893 731.7073170731707,350.0 751.4634146341464,157.23350253807106 771.219512195122,157.23350253807106 790.9756097560976,350.0 810.7317073170732,157.23350253807106 830.4878048780488,350.0 850.2439024390244,350.0 870.0,350.0" fill="none" stroke="#bc8cff" stroke-width="2.5" stroke-linejoin="round"/>
<circle cx="60.0" cy="350.0" r="3" fill="#bc8cff"/>
<circle cx="79.7560975609756" cy="350.0" r="3" fill="#bc8cff"/>
<circle cx="99.51219512195122" cy="286.39028475711893" r="3" fill="#bc8cff"/>
<circle cx="119.26829268292683" cy="286.39028475711893" r="3" fill="#bc8cff"/>
<circle cx="139.02439024390245" cy="286.39028475711893" r="3" fill="#bc8cff"/>
<circle cx="158.78048780487805" cy="222.1380471380471" r="3" fill="#bc8cff"/>
<circle cx="178.53658536585365" cy="91.66666666666669" r="3" fill="#bc8cff"/>
<circle cx="198.2926829268293" cy="350.0" r="3" fill="#bc8cff"/>
<circle cx="218.0487804878049" cy="350.0" r="3" fill="#bc8cff"/>
<circle cx="237.8048780487805" cy="350.0" r="3" fill="#bc8cff"/>
<circle cx="257.5609756097561" cy="222.1380471380471" r="3" fill="#bc8cff"/>
<circle cx="277.31707317073176" cy="350.0" r="3" fill="#bc8cff"/>
<circle cx="297.0731707317073" cy="222.1380471380471" r="3" fill="#bc8cff"/>
<circle cx="316.8292682926829" cy="350.0" r="3" fill="#bc8cff"/>
<circle cx="336.5853658536586" cy="222.1380471380471" r="3" fill="#bc8cff"/>
<circle cx="356.3414634146341" cy="350.0" r="3" fill="#bc8cff"/>
<circle cx="376.0975609756098" cy="350.0" r="3" fill="#bc8cff"/>
<circle cx="395.8536585365853" cy="350.0" r="3" fill="#bc8cff"/>
<circle cx="415.609756097561" cy="350.0" r="3" fill="#bc8cff"/>
<circle cx="435.3658536585366" cy="350.0" r="3" fill="#bc8cff"/>
<circle cx="455.1219512195122" cy="286.39028475711893" r="3" fill="#bc8cff"/>
<circle cx="474.8780487804878" cy="286.39028475711893" r="3" fill="#bc8cff"/>
<circle cx="494.63414634146346" cy="350.0" r="3" fill="#bc8cff"/>
<circle cx="514.3902439024391" cy="222.1380471380471" r="3" fill="#bc8cff"/>
<circle cx="534.1463414634146" cy="350.0" r="3" fill="#bc8cff"/>
<circle cx="553.9024390243902" cy="286.39028475711893" r="3" fill="#bc8cff"/>
<circle cx="573.6585365853658" cy="222.1380471380471" r="3" fill="#bc8cff"/>
<circle cx="593.4146341463415" cy="286.39028475711893" r="3" fill="#bc8cff"/>
<circle cx="613.1707317073171" cy="350.0" r="3" fill="#bc8cff"/>
<circle cx="632.9268292682926" cy="350.0" r="3" fill="#bc8cff"/>
<circle cx="652.6829268292682" cy="222.1380471380471" r="3" fill="#bc8cff"/>
<circle cx="672.439024390244" cy="286.39028475711893" r="3" fill="#bc8cff"/>
<circle cx="692.1951219512196" cy="286.39028475711893" r="3" fill="#bc8cff"/>
<circle cx="711.9512195121952" cy="286.39028475711893" r="3" fill="#bc8cff"/>
<circle cx="731.7073170731707" cy="350.0" r="3" fill="#bc8cff"/>
<circle cx="751.4634146341464" cy="157.23350253807106" r="3" fill="#bc8cff"/>
<circle cx="771.219512195122" cy="157.23350253807106" r="3" fill="#bc8cff"/>
<circle cx="790.9756097560976" cy="350.0" r="3" fill="#bc8cff"/>
<circle cx="810.7317073170732" cy="157.23350253807106" r="3" fill="#bc8cff"/>
<circle cx="830.4878048780488" cy="350.0" r="3" fill="#bc8cff"/>
<circle cx="850.2439024390244" cy="350.0" r="3" fill="#bc8cff"/>
<circle cx="870.0" cy="350.0" r="3" fill="#bc8cff"/>
</svg>