<svg xmlns="http://www.w3.org/2000/svg" viewBox="0 0 900 400" font-family="Inter,system-ui,sans-serif">
<rect width="900" height="400" fill="#0d1117" rx="12"/>
<text x="450" y="28" fill="#e6edf3" font-size="16" font-weight="700" text-anchor="middle">Safety vs Reasoning Polysemantic Collisions per Layer</text>
<rect x="60.0" y="40" width="59.26829268292683" height="310" fill="#f85149" opacity="0.08"/>
<rect x="139.02439024390245" y="40" width="59.26829268292684" height="310" fill="#d29922" opacity="0.08"/>
<rect x="218.0487804878049" y="40" width="138.29268292682923" height="310" fill="#58a6ff" opacity="0.08"/>
<rect x="376.0975609756098" y="40" width="177.80487804878044" height="310" fill="#bc8cff" opacity="0.08"/>
<rect x="573.6585365853658" y="40" width="177.80487804878055" height="310" fill="#3fb950" opacity="0.08"/>
<rect x="771.219512195122" y="40" width="98.78048780487802" height="310" fill="#39d2c0" opacity="0.08"/>
<line x1="60" y1="300.0805152979066" x2="870" y2="300.0805152979066" stroke="#f85149" stroke-width="1" stroke-dasharray="6,4" stroke-opacity="0.6"/>
<text x="875" y="304.0805152979066" fill="#f85149" font-size="9" opacity="0.8">threshold=20</text>
<rect x="53.25" y="252.65700483091786" width="13.499999999999998" height="97.34299516908214" rx="2" fill="#58a6ff" opacity="0.8"/>
<rect x="73.0060975609756" y="262.64090177133653" width="13.499999999999998" height="87.35909822866347" rx="2" fill="#58a6ff" opacity="0.8"/>
<rect x="92.76219512195122" y="272.6247987117552" width="13.499999999999998" height="77.3752012882448" rx="2" fill="#58a6ff" opacity="0.8"/>
<rect x="112.51829268292683" y="252.65700483091786" width="13.499999999999998" height="97.34299516908214" rx="2" fill="#58a6ff" opacity="0.8"/>
<rect x="132.27439024390245" y="232.6892109500805" width="13.499999999999998" height="117.31078904991949" rx="2" fill="#58a6ff" opacity="0.8"/>
<rect x="152.03048780487805" y="195.24959742351044" width="13.499999999999998" height="154.75040257648956" rx="2" fill="#d29922" opacity="0.8"/>
<rect x="171.78658536585365" y="200.2415458937198" width="13.499999999999998" height="149.7584541062802" rx="2" fill="#d29922" opacity="0.8"/>
<rect x="191.5426829268293" y="180.27375201288243" width="13.499999999999998" height="169.72624798711757" rx="2" fill="#d29922" opacity="0.8"/>
<rect x="211.2987804878049" y="182.7697262479871" width="13.499999999999998" height="167.2302737520129" rx="2" fill="#d29922" opacity="0.8"/>
<rect x="231.0548780487805" y="160.30595813204508" width="13.499999999999998" height="189.69404186795492" rx="2" fill="#d29922" opacity="0.8"/>
<rect x="250.8109756097561" y="145.33011272141707" width="13.499999999999998" height="204.66988727858293" rx="2" fill="#f85149" opacity="0.8"/>
<rect x="270.56707317073176" y="150.32206119162637" width="13.499999999999998" height="199.67793880837363" rx="2" fill="#d29922" opacity="0.8"/>
<rect x="290.3231707317073" y="130.35426731078903" width="13.499999999999998" height="219.64573268921097" rx="2" fill="#f85149" opacity="0.8"/>
<rect x="310.0792682926829" y="117.87439613526567" width="13.499999999999998" height="232.12560386473433" rx="2" fill="#f85149" opacity="0.8"/>
<rect x="329.8353658536586" y="112.88244766505633" width="13.499999999999998" height="237.11755233494367" rx="2" fill="#f85149" opacity="0.8"/>
<rect x="349.5914634146341" y="112.88244766505633" width="13.499999999999998" height="237.11755233494367" rx="2" fill="#f85149" opacity="0.8"/>
<rect x="369.3475609756098" y="80.43478260869563" width="13.499999999999998" height="269.5652173913044" rx="2" fill="#f85149" opacity="0.8"/>
<rect x="389.1036585365853" y="87.92270531400965" width="13.499999999999998" height="262.07729468599035" rx="2" fill="#f85149" opacity="0.8"/>
<rect x="408.859756097561" y="92.91465378421896" width="13.499999999999998" height="257.08534621578104" rx="2" fill="#f85149" opacity="0.8"/>
<rect x="428.6158536585366" y="100.402576489533" width="13.499999999999998" height="249.597423510467" rx="2" fill="#f85149" opacity="0.8"/>
<rect x="448.3719512195122" y="97.90660225442832" width="13.499999999999998" height="252.09339774557168" rx="2" fill="#f85149" opacity="0.8"/>
<rect x="468.1280487804878" y="95.41062801932364" width="13.499999999999998" height="254.58937198067636" rx="2" fill="#f85149" opacity="0.8"/>
<rect x="487.88414634146346" y="100.402576489533" width="13.499999999999998" height="249.597423510467" rx="2" fill="#f85149" opacity="0.8"/>
<rect x="507.6402439024391" y="107.89049919484702" width="13.499999999999998" height="242.10950080515298" rx="2" fill="#f85149" opacity="0.8"/>
<rect x="527.3963414634146" y="97.90660225442832" width="13.499999999999998" height="252.09339774557168" rx="2" fill="#f85149" opacity="0.8"/>
<rect x="547.1524390243902" y="90.4186795491143" width="13.499999999999998" height="259.5813204508857" rx="2" fill="#f85149" opacity="0.8"/>
<rect x="566.9085365853658" y="87.92270531400965" width="13.499999999999998" height="262.07729468599035" rx="2" fill="#f85149" opacity="0.8"/>
<rect x="586.6646341463415" y="107.89049919484702" width="13.499999999999998" height="242.10950080515298" rx="2" fill="#f85149" opacity="0.8"/>
<rect x="606.4207317073171" y="102.89855072463766" width="13.499999999999998" height="247.10144927536234" rx="2" fill="#f85149" opacity="0.8"/>
<rect x="626.1768292682926" y="95.41062801932364" width="13.499999999999998" height="254.58937198067636" rx="2" fill="#f85149" opacity="0.8"/>
<rect x="645.9329268292682" y="92.91465378421896" width="13.499999999999998" height="257.08534621578104" rx="2" fill="#f85149" opacity="0.8"/>
<rect x="665.689024390244" y="95.41062801932364" width="13.499999999999998" height="254.58937198067636" rx="2" fill="#f85149" opacity="0.8"/>
<rect x="685.4451219512196" y="97.90660225442832" width="13.499999999999998" height="252.09339774557168" rx="2" fill="#f85149" opacity="0.8"/>
<rect x="705.2012195121952" y="110.38647342995165" width="13.499999999999998" height="239.61352657004835" rx="2" fill="#f85149" opacity="0.8"/>
<rect x="724.9573170731707" y="105.39452495974234" width="13.499999999999998" height="244.60547504025766" rx="2" fill="#f85149" opacity="0.8"/>
<rect x="744.7134146341464" y="102.89855072463766" width="13.499999999999998" height="247.10144927536234" rx="2" fill="#f85149" opacity="0.8"/>
<rect x="764.469512195122" y="102.89855072463766" width="13.499999999999998" height="247.10144927536234" rx="2" fill="#f85149" opacity="0.8"/>
<rect x="784.2256097560976" y="97.90660225442832" width="13.499999999999998" height="252.09339774557168" rx="2" fill="#f85149" opacity="0.8"/>
<rect x="803.9817073170732" y="110.38647342995165" width="13.499999999999998" height="239.61352657004835" rx="2" fill="#f85149" opacity="0.8"/>
<rect x="823.7378048780488" y="97.90660225442832" width="13.499999999999998" height="252.09339774557168" rx="2" fill="#f85149" opacity="0.8"/>
<rect x="843.4939024390244" y="105.39452495974234" width="13.499999999999998" height="244.60547504025766" rx="2" fill="#f85149" opacity="0.8"/>
<rect x="863.25" y="95.41062801932364" width="13.499999999999998" height="254.58937198067636" rx="2" fill="#f85149" opacity="0.8"/>
<text x="60.0" y="390" fill="#e6edf3" font-size="10" text-anchor="middle" opacity="0.6">L0</text>
<text x="158.78048780487805" y="390" fill="#e6edf3" font-size="10" text-anchor="middle" opacity="0.6">L5</text>
<text x="257.5609756097561" y="390" fill="#e6edf3" font-size="10" text-anchor="middle" opacity="0.6">L10</text>
<text x="356.3414634146341" y="390" fill="#e6edf3" font-size="10" text-anchor="middle" opacity="0.6">L15</text>
<text x="455.1219512195122" y="390" fill="#e6edf3" font-size="10" text-anchor="middle" opacity="0.6">L20</text>
<text x="553.9024390243902" y="390" fill="#e6edf3" font-size="10" text-anchor="middle" opacity="0.6">L25</text>
<text x="652.6829268292682" y="390" fill="#e6edf3" font-size="10" text-anchor="middle" opacity="0.6">L30</text>
<text x="751.4634146341464" y="390" fill="#e6edf3" font-size="10" text-anchor="middle" opacity="0.6">L35</text>
<text x="850.2439024390244" y="390" fill="#e6edf3" font-size="10" text-anchor="middle" opacity="0.6">L40</text>
</svg>