<svg xmlns="http://www.w3.org/2000/svg" viewBox="0 0 900 350" font-family="Inter,system-ui,sans-serif">
<rect width="900" height="350" fill="#0d1117" rx="12"/>
<text x="450" y="28" fill="#e6edf3" font-size="16" font-weight="700" text-anchor="middle">Singular Value Heartbeat - Knowledge Concentration per Layer</text>
<rect x="60.0" y="40" width="59.26829268292683" height="260" fill="#f85149" opacity="0.08"/>
<rect x="139.02439024390245" y="40" width="59.26829268292684" height="260" fill="#d29922" opacity="0.08"/>
<rect x="218.0487804878049" y="40" width="138.29268292682923" height="260" fill="#58a6ff" opacity="0.08"/>
<rect x="376.0975609756098" y="40" width="177.80487804878044" height="260" fill="#bc8cff" opacity="0.08"/>
<rect x="573.6585365853658" y="40" width="177.80487804878055" height="260" fill="#3fb950" opacity="0.08"/>
<rect x="771.219512195122" y="40" width="98.78048780487802" height="260" fill="#39d2c0" opacity="0.08"/>
<polygon points="60.0,300 60.0,180.5689535190651 79.7560975609756,149.40489045665063 99.51219512195122,80.77532215103307 119.26829268292683,172.45818635567394 139.02439024390245,153.95939817147794 158.78048780487805,128.50406738175803 178.53658536585365,124.3550980251002 198.2926829268293,144.66321119189885 218.0487804878049,76.5639622777338 237.8048780487805,119.98776186019725 257.5609756097561,204.7764739759557 277.31707317073176,170.18093249826026 297.0731707317073,131.24925011398267 316.8292682926829,141.48129484318383 336.5853658536586,206.64818947519979 356.3414634146341,153.52266455498767 376.0975609756098,217.5353346291364 395.8536585365853,176.45117942072807 415.609756097561,190.08350730688932 435.3658536585366,198.25666498692198 455.1219512195122,224.5542677513018 474.8780487804878,234.28718834737123 494.63414634146346,171.92786696422147 514.3902439024391,133.4953087130756 534.1463414634146,143.50898663403166 553.9024390243902,205.15081707580447 573.6585365853658,220.2805173613611 593.4146341463415,171.77189067261776 613.1707317073171,158.35792959470163 632.9268292682926,175.54651692942673 652.6829268292682,167.87248338252587 672.439024390244,200.06598996952465 692.1951219512196,171.64710963933481 711.9512195121952,192.36076116430303 731.7073170731707,186.02812372519378 751.4634146341464,178.29169966165142 771.219512195122,248.85537398315455 790.9756097560976,277.1182780217407 810.7317073170732,284.1996016605476 830.4878048780488,262.8620449691647 850.2439024390244,252.4116334317184 870.0,176.1080315792 870.0,300" fill="#3fb950" fill-opacity="0.1"/>
<polyline points="60.0,180.5689535190651 79.7560975609756,149.40489045665063 99.51219512195122,80.77532215103307 119.26829268292683,172.45818635567394 139.02439024390245,153.95939817147794 158.78048780487805,128.50406738175803 178.53658536585365,124.3550980251002 198.2926829268293,144.66321119189885 218.0487804878049,76.5639622777338 237.8048780487805,119.98776186019725 257.5609756097561,204.7764739759557 277.31707317073176,170.18093249826026 297.0731707317073,131.24925011398267 316.8292682926829,141.48129484318383 336.5853658536586,206.64818947519979 356.3414634146341,153.52266455498767 376.0975609756098,217.5353346291364 395.8536585365853,176.45117942072807 415.609756097561,190.08350730688932 435.3658536585366,198.25666498692198 455.1219512195122,224.5542677513018 474.8780487804878,234.28718834737123 494.63414634146346,171.92786696422147 514.3902439024391,133.4953087130756 534.1463414634146,143.50898663403166 553.9024390243902,205.15081707580447 573.6585365853658,220.2805173613611 593.4146341463415,171.77189067261776 613.1707317073171,158.35792959470163 632.9268292682926,175.54651692942673 652.6829268292682,167.87248338252587 672.439024390244,200.06598996952465 692.1951219512196,171.64710963933481 711.9512195121952,192.36076116430303 731.7073170731707,186.02812372519378 751.4634146341464,178.29169966165142 771.219512195122,248.85537398315455 790.9756097560976,277.1182780217407 810.7317073170732,284.1996016605476 830.4878048780488,262.8620449691647 850.2439024390244,252.4116334317184 870.0,176.1080315792" fill="none" stroke="#3fb950" stroke-width="2.5" stroke-linejoin="round"/>
<circle cx="99.51219512195122" cy="80.77532215103307" r="5" fill="#f85149" stroke="#0d1117" stroke-width="2"/>
<text x="99.51219512195122" y="70.77532215103307" fill="#f85149" font-size="10" text-anchor="middle" font-weight="700">11.6</text>
<circle cx="218.0487804878049" cy="76.5639622777338" r="5" fill="#f85149" stroke="#0d1117" stroke-width="2"/>
<text x="218.0487804878049" y="66.5639622777338" fill="#f85149" font-size="10" text-anchor="middle" font-weight="700">11.7</text>
<text x="60.0" y="340" fill="#e6edf3" font-size="10" text-anchor="middle" opacity="0.6">L0</text>
<text x="158.78048780487805" y="340" fill="#e6edf3" font-size="10" text-anchor="middle" opacity="0.6">L5</text>
<text x="257.5609756097561" y="340" fill="#e6edf3" font-size="10" text-anchor="middle" opacity="0.6">L10</text>
<text x="356.3414634146341" y="340" fill="#e6edf3" font-size="10" text-anchor="middle" opacity="0.6">L15</text>
<text x="455.1219512195122" y="340" fill="#e6edf3" font-size="10" text-anchor="middle" opacity="0.6">L20</text>
<text x="553.9024390243902" y="340" fill="#e6edf3" font-size="10" text-anchor="middle" opacity="0.6">L25</text>
<text x="652.6829268292682" y="340" fill="#e6edf3" font-size="10" text-anchor="middle" opacity="0.6">L30</text>
<text x="751.4634146341464" y="340" fill="#e6edf3" font-size="10" text-anchor="middle" opacity="0.6">L35</text>
<text x="850.2439024390244" y="340" fill="#e6edf3" font-size="10" text-anchor="middle" opacity="0.6">L40</text>
</svg>